PathFileType	4	(X/Y/Z)	RBDS002\RBDS002runT25.trc
DataRate	CameraRate	NumFrames	NumMarkers	Units	OrigDataRate	OrigDataStartFrame	OrigNumFrames
150.000000	150.000000	4	33	mm	150.000000	3375	4500
Frame#	Time	L.ASIS			L.Heel.Bottom			L.Heel.Lateral			L.Heel.Top			L.Iliac.Crest			L.MT1			L.MT5			L.PSIS			L.Shank.Bottom.Lateral			L.Shank.Bottom.Medial			L.Shank.Top.Lateral			L.Shank.Top.Medial			L.Thigh.Bottom.Lateral			L.Thigh.Bottom.Medial			L.Thigh.Top.Lateral			L.Thigh.Top.Medial			R.ASIS			R.ASY			R.Heel.Bottom			R.Heel.Lateral			R.Heel.Top			R.Iliac.Crest			R.MT1			R.MT5			R.PSIS			R.Shank.Bottom.Lateral			R.Shank.Bottom.Medial			R.Shank.Top.Lateral			R.Shank.Top.Medial			R.Thigh.Bottom.Lateral			R.Thigh.Bottom.Medial			R.Thigh.Top.Lateral			R.Thigh.Top.Medial			
		X1	Y1	Z1	X2	Y2	Z2	X3	Y3	Z3	X4	Y4	Z4	X5	Y5	Z5	X6	Y6	Z6	X7	Y7	Z7	X8	Y8	Z8	X9	Y9	Z9	X10	Y10	Z10	X11	Y11	Z11	X12	Y12	Z12	X13	Y13	Z13	X14	Y14	Z14	X15	Y15	Z15	X16	Y16	Z16	X17	Y17	Z17	X18	Y18	Z18	X19	Y19	Z19	X20	Y20	Z20	X21	Y21	Z21	X22	Y22	Z22	X23	Y23	Z23	X24	Y24	Z24	X25	Y25	Z25	X26	Y26	Z26	X27	Y27	Z27	X28	Y28	Z28	X29	Y29	Z29	X30	Y30	Z30	X31	Y31	Z31	X32	Y32	Z32	X33	Y33	Z33	

3376	22.5	2231.762190306891	1019.515423705642	891.5415256137693	1690.94226254771	137.6016009003943	956.3314548705836	1722.772861075715	130.1801592776214	909.4270408465975	1723.159370059489	176.4778341010096	950.8307592862384	2157.537338756678	1098.250700345985	838.5605242832868	1897.913427829483	50.56611365052148	999.0737469286199	1859.636036539501	49.06727576752264	886.077184453693	2046.985174301038	1056.562667925658	951.6038134921758	1827.715270022454	220.4841514580974	893.884998953569	1794.675330598604	246.412508944454	923.8514937850426	1865.690565499488	288.2892886834056	871.1322842240377	1834.021870199119	317.8468878157718	902.3796096357636	2060.152079421624	598.9488033370744	844.949301017823	2007.367271724103	608.3762013135946	895.5030513007463	2062.266125450763	708.8143554868709	831.7605120367861	2015.003654091956	717.8782780114141	881.5364990250758	2228.214488935037	1026.362154179875	1103.553959981331	2343.167647446657	119.1273960620218	1074.140382803299	2157.182570874994	64.95954119774564	1041.740286578401	2174.478747937349	79.92620313072455	1083.685816310037	2170.856494698112	114.5894978509975	1041.858969481894	2137.312484445376	1101.226421176581	1152.234475245216	2393.07601228639	72.68789571831169	1039.743480598591	2343.405878803247	69.49676169250334	1140.787985227838	2043.255178945762	1054.05651690142	1040.150455955153	2237.714613612186	211.7683368331788	1108.279756660704	2202.648387285597	223.9776920180664	1067.964146555539	2245.586642510745	291.5335096015181	1122.505096965717	2213.016562239986	302.1796530111917	1080.885547231579	2300.239282458269	625.1978771478651	1138.659074076225	2248.953751159161	603.8860144365589	1090.312662234791	2239.838397665708	715.3726284552182	1160.016939649749	2189.809660293067	693.4107362568726	1116.081597390253	
3377	22.50666666666667	2233.674613437389	1022.562274766123	892.8487217521121	1681.465499969027	148.3286544773109	956.2653336043427	1712.603388069418	138.9749426306326	909.2507046642439	1715.49936742624	185.5080863433397	950.2596597648633	2162.449070825419	1102.909449282303	839.5329348758671	1883.504367942419	50.76217589468545	998.9322639299651	1844.961597648477	50.74786388976327	885.80887089409	2048.937170068499	1061.044825533852	950.9962203568821	1818.368471568754	226.8579284205789	892.8294379319597	1785.905252663285	252.5943434368604	923.5799141449656	1856.352543207916	294.7374203175009	870.290754726095	1825.343389898126	324.1187889599104	902.3387961292649	2054.070561730938	604.7263137873981	844.3375221564886	2001.939313368645	615.1498506958766	895.3789839309323	2058.582822851526	714.5869562928963	831.5891786158911	2012.02570387337	724.4877069926207	881.8537223532718	2229.277326720007	1030.943726631968	1104.068437289736	2364.492842706856	120.3499852026484	1071.695516602585	2180.691177366035	58.32987912861342	1040.82121025011	2197.903574239367	73.44193175867889	1082.732518814297	2192.146327920195	108.5296736500823	1041.626811634029	2137.522230472571	1106.264727604001	1152.420386237283	2415.929153387374	76.73819760047337	1035.896355439479	2367.857845126284	69.84526717986041	1137.514624581285	2044.683895942554	1058.784070532975	1039.846958098584	2254.25602173785	208.3813607789862	1107.927888701656	2218.328976755232	218.9589775771379	1068.009686383769	2257.911760862399	288.3195936841618	1122.74630336586	2224.439598920276	297.502413666061	1081.480094702708	2297.828819262138	629.1114772598896	1139.198510650328	2245.753979793943	607.6389719969968	1091.767113712117	2238.424171960968	720.0771670353394	1160.199634073245	2187.676399564436	697.9699762850775	1117.1627916237	
3378	22.51333333333334	2235.642042113788	1025.534798788393	894.0030247093963	1672.84758258867	159.3392852572962	956.0200793894614	1703.218790716708	148.0684348923289	908.9408462382315	1708.683781948267	194.6784053369688	949.5889659809073	2167.051882078851	1107.494326558995	840.5356865771579	1869.305529309236	51.26646429990267	998.744477306331	1830.642510800524	52.73581345532155	885.4841708878026	2050.922871531693	1065.309653318777	950.3809026393586	1809.697645801895	233.2286261137344	891.721175812486	1777.83117074233	258.7463121243034	923.2637952376465	1847.705091020254	301.1822201629134	869.4106583408608	1817.397741423722	330.3740548338698	902.3096374816205	2048.577359661379	610.424816789232	843.6644057131542	1997.162262663274	621.7387010026397	895.2464398832612	2055.322293846063	720.2334398183103	831.3545858455107	2009.566644976029	730.8716725907141	882.1737161365364	2230.42671352693	1035.269970763292	1104.522630758883	2385.122624197964	122.1970588528267	1069.121279891059	2203.639985567675	52.84091029706893	1039.938920174579	2220.876499858059	68.0298310102301	1081.804561642739	2212.961847566201	103.4950314506895	1041.512575073662	2137.822598852427	1111.152240782915	1152.553610125539	2437.785367868469	81.4276583314832	1031.821881651415	2391.656639289169	70.90261604303394	1134.018016255344	2046.186998126146	1063.2460958099	1039.460737861154	2270.3915162998	205.6689372598446	1107.608066701429	2233.684995357112	214.610677194821	1068.074384745025	2269.949226297183	285.55318289112	1123.013914683567	2235.646247998654	293.2731731755694	1082.099112931347	2295.064739647191	632.4853104514211	1139.85949882689	2242.279018991646	610.9518928257771	1093.227374285123	2236.672738013794	724.2584006926259	1160.505822841355	2185.298699964387	702.0959945510642	1118.242407468333	
3379	22.52	2237.626012459183	1028.405673229857	894.9861877821741	1665.079259913273	170.5762992845433	955.5335848880451	1694.629535401141	157.414461321316	908.4464647762843	1702.677110915668	203.9437199061251	948.7649826337851	2171.255973405666	1111.956129567634	841.5447945195359	1855.330946043737	52.15524653013851	998.5063077288702	1816.713846420376	55.0687977023056	885.1030866124498	2052.906524146764	1069.316536574032	949.7646246081985	1801.699187149925	239.5502388409345	890.5597428303155	1770.440232180455	264.8356651714234	922.881839473459	1839.775949335234	307.5613463599627	868.5020238557772	1810.191355951893	336.5617286790688	902.2680456621922	2043.703315279274	615.9445076766305	842.9962291008191	1993.05854804497	628.045946108128	895.1674035008092	2052.495724078627	725.6629835708136	831.1041441964945	2007.625784429224	736.9438050454781	882.5358433643457	2231.645363802072	1039.289250316591	1104.903453853424	2404.821966856918	124.5930859342048	1066.449417324326	2225.717860782085	48.49632288903172	1039.129281810106	2243.093117657589	63.69680420688057	1080.936303685568	2233.027032416428	99.49181964781327	1041.538436992357	2138.246341198063	1115.84375117187	1152.631327810059	2458.396970977079	86.63086905115202	1027.57102413914	2414.5324677434	72.58581102477065	1130.33703938529	2047.735601950381	1067.397269678842	1039.006496239531	2285.92484484854	203.6348437348148	1107.331641786533	2248.526057000736	210.9651276928703	1068.157671079464	2281.562674650299	283.2623046744118	1123.306697482802	2246.511973729562	289.5447420145742	1082.731437694288	2292.079607808651	635.3095160598798	1140.637117889232	2238.713419646086	613.8439367438268	1094.617643715203	2234.678453892325	727.8654244204459	1160.963135776678	2182.811661752179	705.7664194819093	1119.284907302215	
